<svg width="127" height="21" viewBox="0 0 127 21" fill="none" xmlns="http://www.w3.org/2000/svg">
<g id="Pretty Stones">
<path d="M4.82848 0.188435C5.24473 0.188435 5.8136 0.160518 6.5351 0.104686C7.22885 0.0488531 7.74222 0.0209367 8.07522 0.0209367C9.94834 0.0209367 11.3081 0.376869 12.1545 1.08873C13.0008 1.8006 13.424 2.88235 13.424 4.334C13.424 5.60419 13.1326 6.69292 12.5499 7.6002C11.9671 8.50748 11.1485 9.19841 10.094 9.67298C9.0534 10.1476 7.84628 10.3848 6.47266 10.3848C5.90379 10.3848 5.41123 10.3709 4.99498 10.343L4.5163 14.4885L7.01379 14.7817L6.95135 15.7448H0L0.104062 14.7817L1.54012 14.4885L3.22593 1.4656L1.76906 1.21436L1.89393 0.188435H4.82848ZM5.16148 9.04487C5.54998 9.12861 6.02173 9.17049 6.57673 9.17049C7.79772 9.15653 8.73428 8.70987 9.3864 7.83051C10.0524 6.95115 10.3923 5.74377 10.4062 4.20838C10.4062 2.21236 9.46965 1.21436 7.59653 1.21436C7.13866 1.21436 6.66691 1.25623 6.18129 1.33998L5.16148 9.04487Z" fill="white"/>
<path d="M17.9349 6.8674C18.1986 6.07178 18.6495 5.37388 19.2877 4.77368C19.9399 4.15952 20.6683 3.85244 21.4731 3.85244C21.7506 3.85244 21.9864 3.91525 22.1807 4.04088L21.5771 7.05583C21.4939 6.98604 21.3551 6.92323 21.1609 6.8674C20.9805 6.79761 20.7585 6.76271 20.4949 6.76271C19.9954 6.76271 19.5167 6.87438 19.0588 7.09771C18.6009 7.30708 18.2471 7.61416 17.9974 8.01894L16.9776 15.7448H14.272L15.5831 5.7996L14.5217 5.21336L14.6674 4.37587L17.6436 3.87338L18.1223 4.1665L18.0182 6.07178L17.9349 6.8674Z" fill="white"/>
<path d="M31.444 13.651C31.0832 14.2233 30.4936 14.7607 29.6749 15.2632C28.8702 15.7657 27.9336 16.0169 26.8653 16.0169C25.8663 16.0169 25.0407 15.8006 24.3886 15.3679C23.7503 14.9352 23.2855 14.3699 22.9942 13.672C22.7028 12.9741 22.5571 12.2134 22.5571 11.3898C22.5571 9.99402 22.8346 8.72383 23.3896 7.57926C23.9585 6.42074 24.7285 5.50648 25.6998 4.83649C26.671 4.1665 27.7533 3.83151 28.9465 3.83151C30.0149 3.83151 30.8057 4.08275 31.3191 4.58524C31.8464 5.07378 32.11 5.71585 32.11 6.51147C32.11 7.51645 31.7492 8.35394 31.0277 9.02393C30.3062 9.69392 29.4391 10.1964 28.4262 10.5314C27.4133 10.8524 26.4559 11.0269 25.5541 11.0548C25.5263 12.0598 25.6859 12.8694 26.0328 13.4836C26.3935 14.0977 26.9346 14.4048 27.6561 14.4048C28.8494 14.4048 29.9316 13.8465 30.9029 12.7298L31.444 13.651ZM28.3221 5.12961C27.5035 5.12961 26.8583 5.62513 26.3866 6.61615C25.9148 7.60718 25.6373 8.70987 25.5541 9.92423C26.0952 9.89631 26.6641 9.74975 27.2607 9.48455C27.8712 9.21934 28.3776 8.84945 28.78 8.37488C29.1963 7.88634 29.4044 7.32802 29.4044 6.6999C29.4044 6.19741 29.3073 5.81356 29.113 5.54836C28.9326 5.26919 28.669 5.12961 28.3221 5.12961Z" fill="white"/>
<path d="M36.8856 11.9133C36.7885 12.7228 36.7399 13.2114 36.7399 13.3789C36.7399 13.6999 36.8024 13.9302 36.9273 14.0698C37.0521 14.1954 37.2672 14.2582 37.5724 14.2582C37.8499 14.2582 38.1621 14.1954 38.509 14.0698C38.8697 13.9302 39.1681 13.7627 39.4039 13.5673L39.6329 14.342C39.2721 14.7468 38.7587 15.1167 38.0928 15.4516C37.4268 15.7866 36.6775 15.9541 35.845 15.9541C35.2623 15.9541 34.7974 15.8076 34.4506 15.5145C34.1176 15.2074 33.9511 14.7258 33.9511 14.0698C33.9511 13.7906 34.0205 13.1346 34.1592 12.1017L35.0333 5.61117H33.7846L34.0135 4.60618L35.2623 4.1665C35.6785 3.77567 36.1711 2.81256 36.7399 1.27717H38.3009L37.9471 4.12463H40.4446L40.2364 5.61117H37.7389L36.8856 11.9133Z" fill="white"/>
<path d="M44.2838 11.9133C44.1867 12.7228 44.1381 13.2114 44.1381 13.3789C44.1381 13.6999 44.2005 13.9302 44.3254 14.0698C44.4503 14.1954 44.6654 14.2582 44.9706 14.2582C45.2481 14.2582 45.5603 14.1954 45.9072 14.0698C46.2679 13.9302 46.5662 13.7627 46.8021 13.5673L47.031 14.342C46.6703 14.7468 46.1569 15.1167 45.4909 15.4516C44.8249 15.7866 44.0757 15.9541 43.2432 15.9541C42.6604 15.9541 42.1956 15.8076 41.8487 15.5145C41.5157 15.2074 41.3492 14.7258 41.3492 14.0698C41.3492 13.7906 41.4186 13.1346 41.5574 12.1017L42.4315 5.61117H41.1827L41.4117 4.60618L42.6604 4.1665C43.0767 3.77567 43.5692 2.81256 44.1381 1.27717H45.699L45.3452 4.12463H47.8427L47.6346 5.61117H45.1371L44.2838 11.9133Z" fill="white"/>
<path d="M48.9763 6.11366C48.9208 5.87637 48.8584 5.71585 48.789 5.6321C48.7197 5.5344 48.6295 5.48554 48.5185 5.48554C48.3381 5.48554 48.13 5.58325 47.8941 5.77866L47.6027 5.0668C47.7692 4.84347 48.0814 4.59222 48.5393 4.31306C49.011 4.01994 49.5105 3.87338 50.0378 3.87338C50.5789 3.87338 50.9813 3.99202 51.2449 4.22931C51.5085 4.45264 51.675 4.8016 51.7444 5.27617L52.9515 13.2323L53.2429 15.5354L54.2211 13.5464C54.8177 12.2901 55.2686 11.1874 55.5739 10.2383C55.893 9.28913 56.0526 8.38185 56.0526 7.51645C56.0526 7.25125 56.0318 7.02792 55.9901 6.84646C55.9485 6.66501 55.8861 6.45563 55.8028 6.21835C55.6502 5.82752 55.5739 5.45763 55.5739 5.10867C55.5739 4.7318 55.6849 4.4317 55.9069 4.20838C56.1428 3.98505 56.4758 3.87338 56.9059 3.87338C57.4054 3.87338 57.7939 4.06879 58.0714 4.45962C58.3627 4.85045 58.5084 5.32502 58.5084 5.88335C58.5084 6.87438 58.3489 7.81655 58.0297 8.70987C57.7106 9.58923 57.225 10.6849 56.5729 11.997C56.115 13.002 55.5184 14.1186 54.783 15.347C54.0615 16.5613 53.4233 17.5872 52.8683 18.4247C52.2994 19.332 51.6889 19.988 51.0368 20.3928C50.3985 20.7976 49.6354 21 48.7474 21C48.3867 21 47.9912 20.9511 47.5611 20.8534C47.1448 20.7697 46.8604 20.679 46.7078 20.5813L47.353 18.7597C47.5056 18.8993 47.7623 19.0249 48.123 19.1366C48.4838 19.2483 48.8376 19.3041 49.1845 19.3041C49.8088 19.3041 50.4055 19.0808 50.9743 18.6341C51.5571 18.2014 52.1329 17.4895 52.7018 16.4985H51.2033L48.9763 6.11366Z" fill="white"/>
<path d="M72.4004 1.69591C71.9703 1.34696 71.3667 1.17248 70.5897 1.17248C69.8266 1.17248 69.2022 1.36092 68.7166 1.73779C68.2449 2.1007 68.009 2.59621 68.009 3.22433C68.009 3.96411 68.231 4.59222 68.675 5.10867C69.1329 5.61117 69.8821 6.19043 70.9227 6.84646C71.9217 7.47458 72.7057 8.13061 73.2745 8.81456C73.8573 9.49851 74.1486 10.322 74.1486 11.2851C74.1625 12.1645 73.9475 12.9601 73.5035 13.672C73.0595 14.3838 72.4004 14.9492 71.5263 15.3679C70.666 15.7727 69.6323 15.9751 68.4252 15.9751C67.4401 15.9751 66.4966 15.8704 65.5947 15.661C64.6929 15.4377 64.1032 15.2213 63.8257 15.012L64.3668 11.8923H66.0942L66.1983 14.1326C66.448 14.328 66.7602 14.4816 67.1349 14.5932C67.5234 14.7049 67.9396 14.7607 68.3836 14.7607C69.3271 14.7607 70.0625 14.5513 70.5897 14.1326C71.1308 13.6999 71.4014 13.1206 71.4014 12.3948C71.4014 11.7248 71.1933 11.1525 70.777 10.678C70.3608 10.1894 69.6809 9.64507 68.7374 9.04487C67.6968 8.38883 66.8712 7.69791 66.2607 6.97208C65.6641 6.24626 65.3589 5.39482 65.345 4.41775C65.345 3.51047 65.5809 2.72183 66.0526 2.05184C66.5244 1.38185 67.1695 0.872383 67.9882 0.523429C68.8207 0.174477 69.7572 0 70.7978 0C72.56 0 73.8781 0.265204 74.7522 0.795613L74.2319 3.72682H72.6501L72.4004 1.69591Z" fill="white"/>
<path d="M79.2422 11.9133C79.145 12.7228 79.0965 13.2114 79.0965 13.3789C79.0965 13.6999 79.1589 13.9302 79.2838 14.0698C79.4087 14.1954 79.6237 14.2582 79.929 14.2582C80.2065 14.2582 80.5187 14.1954 80.8655 14.0698C81.2263 13.9302 81.5246 13.7627 81.7605 13.5673L81.9894 14.342C81.6286 14.7468 81.1153 15.1167 80.4493 15.4516C79.7833 15.7866 79.034 15.9541 78.2015 15.9541C77.6188 15.9541 77.154 15.8076 76.8071 15.5145C76.4741 15.2074 76.3076 14.7258 76.3076 14.0698C76.3076 13.7906 76.377 13.1346 76.5157 12.1017L77.3899 5.61117H76.1411L76.37 4.60618L77.6188 4.1665C78.035 3.77567 78.5276 2.81256 79.0965 1.27717H80.6574L80.3036 4.12463H82.8011L82.593 5.61117H80.0955L79.2422 11.9133Z" fill="white"/>
<path d="M89.5124 3.83151C90.9554 3.83151 92.0585 4.25723 92.8216 5.10867C93.5847 5.94616 93.9663 7.15354 93.9663 8.73081C93.9663 10.0289 93.7027 11.2363 93.1754 12.3529C92.6482 13.4696 91.9059 14.3629 90.9485 15.0329C89.9911 15.6889 88.895 16.0169 87.6601 16.0169C86.2171 16.0169 85.1141 15.5912 84.351 14.7398C83.6017 13.8744 83.2271 12.6461 83.2271 11.0548C83.2271 9.74277 83.4838 8.53539 83.9971 7.4327C84.5244 6.33001 85.2667 5.45763 86.2241 4.81555C87.1814 4.15952 88.2776 3.83151 89.5124 3.83151ZM89.1586 5.15055C88.5204 5.15055 87.9793 5.44367 87.5353 6.02991C87.0913 6.60219 86.7583 7.335 86.5363 8.22832C86.3281 9.12164 86.2241 10.0359 86.2241 10.9711C86.2241 12.2971 86.3698 13.2672 86.6611 13.8814C86.9664 14.4955 87.4381 14.8026 88.0764 14.8026C88.7008 14.8026 89.228 14.5095 89.6581 13.9232C90.0882 13.337 90.4074 12.5902 90.6155 11.683C90.8236 10.7757 90.9277 9.84746 90.9277 8.8983C90.9277 7.57228 90.782 6.61615 90.4906 6.02991C90.2131 5.44367 89.7691 5.15055 89.1586 5.15055Z" fill="white"/>
<path d="M99.687 6.38584C100.2 5.61815 100.811 5.00399 101.518 4.54337C102.226 4.08275 102.968 3.85244 103.745 3.85244C105.466 3.85244 106.326 4.87837 106.326 6.93021C106.326 7.47458 106.153 8.68893 105.806 10.5733C105.75 10.9362 105.702 11.2154 105.66 11.4108C105.466 12.5135 105.362 13.3091 105.348 13.7976V13.8814C105.348 14.2303 105.459 14.4048 105.681 14.4048C105.806 14.4048 105.938 14.3699 106.076 14.3001C106.215 14.2303 106.395 14.1047 106.617 13.9232L106.909 14.5723C106.701 14.8654 106.361 15.1725 105.889 15.4935C105.417 15.8006 104.841 15.9541 104.162 15.9541C103.509 15.9541 103.059 15.8146 102.809 15.5354C102.559 15.2423 102.434 14.8584 102.434 14.3838C102.448 13.9651 102.58 13.1346 102.83 11.8923L102.955 11.1805C102.982 11.0548 103.038 10.7198 103.121 10.1755C103.218 9.63111 103.294 9.11466 103.35 8.62612C103.405 8.12363 103.433 7.69093 103.433 7.32802C103.433 6.68594 103.357 6.24626 103.204 6.00897C103.066 5.77169 102.809 5.65304 102.434 5.65304C101.976 5.65304 101.463 5.91127 100.894 6.42772C100.339 6.94417 99.8604 7.5653 99.458 8.29113L98.459 15.7448H95.7326L97.0646 5.77866L96.0032 5.21336L96.1697 4.35494L99.4164 3.85244L99.8951 4.08275L99.687 6.38584Z" fill="white"/>
<path d="M117.438 13.651C117.077 14.2233 116.487 14.7607 115.668 15.2632C114.864 15.7657 113.927 16.0169 112.859 16.0169C111.86 16.0169 111.034 15.8006 110.382 15.3679C109.744 14.9352 109.279 14.3699 108.988 13.672C108.696 12.9741 108.551 12.2134 108.551 11.3898C108.551 9.99402 108.828 8.72383 109.383 7.57926C109.952 6.42074 110.722 5.50648 111.693 4.83649C112.665 4.1665 113.747 3.83151 114.94 3.83151C116.008 3.83151 116.799 4.08275 117.313 4.58524C117.84 5.07378 118.104 5.71585 118.104 6.51147C118.104 7.51645 117.743 8.35394 117.021 9.02393C116.3 9.69392 115.433 10.1964 114.42 10.5314C113.407 10.8524 112.449 11.0269 111.548 11.0548C111.52 12.0598 111.679 12.8694 112.026 13.4836C112.387 14.0977 112.928 14.4048 113.65 14.4048C114.843 14.4048 115.925 13.8465 116.896 12.7298L117.438 13.651ZM114.316 5.12961C113.497 5.12961 112.852 5.62513 112.38 6.61615C111.908 7.60718 111.631 8.70987 111.548 9.92423C112.089 9.89631 112.658 9.74975 113.254 9.48455C113.865 9.21934 114.371 8.84945 114.774 8.37488C115.19 7.88634 115.398 7.32802 115.398 6.6999C115.398 6.19741 115.301 5.81356 115.107 5.54836C114.926 5.26919 114.663 5.12961 114.316 5.12961Z" fill="white"/>
<path d="M126.605 6.11366C126.438 5.91824 126.161 5.71585 125.772 5.50648C125.397 5.29711 124.96 5.19242 124.461 5.19242C123.906 5.19242 123.455 5.31805 123.108 5.56929C122.775 5.80658 122.609 6.16251 122.609 6.63709C122.609 7.05583 122.747 7.4327 123.025 7.7677C123.316 8.08873 123.781 8.47956 124.419 8.94018C125.127 9.47059 125.668 9.98704 126.043 10.4895C126.417 10.9781 126.605 11.6062 126.605 12.3739C126.605 13.1416 126.396 13.7976 125.98 14.342C125.564 14.8724 125.009 15.2772 124.315 15.5563C123.621 15.8215 122.858 15.9541 122.026 15.9541C121.401 15.9541 120.763 15.8843 120.111 15.7448C119.459 15.5912 119.036 15.4307 118.842 15.2632L119.258 13.4836C119.549 13.7348 119.945 13.9721 120.444 14.1954C120.944 14.4187 121.464 14.5304 122.005 14.5304C122.518 14.5304 122.955 14.4118 123.316 14.1745C123.691 13.9372 123.878 13.5673 123.878 13.0648C123.878 12.6321 123.719 12.2413 123.399 11.8923C123.08 11.5434 122.602 11.1456 121.963 10.6989C121.381 10.2941 120.888 9.81954 120.486 9.27518C120.097 8.71685 119.903 8.04686 119.903 7.2652C119.903 6.59521 120.09 6.00199 120.465 5.48554C120.853 4.96909 121.381 4.57129 122.047 4.29212C122.727 3.999 123.504 3.85244 124.378 3.85244C124.891 3.85244 125.411 3.89432 125.939 3.97807C126.466 4.06181 126.82 4.15254 127 4.25025L126.605 6.11366Z" fill="white"/>
</g>
</svg>
